<svg width="234" height="234" viewBox="0 0 234 234" fill="none" xmlns="http://www.w3.org/2000/svg">
<path d="M170.07 42.2989C167.319 30.2809 160.571 19.5522 150.93 11.8682C141.289 4.18428 129.325 0 116.996 0C104.667 0 92.7035 4.18428 83.0622 11.8682C73.4209 19.5522 66.6729 30.2809 63.9223 42.2989C23.8475 48.3905 0 60.5404 0 74.9768C0 88.9077 21.551 100.516 59.1477 106.881C73.6532 118.948 94.6592 125.863 116.996 125.863C139.333 125.863 160.339 118.952 174.852 106.881C212.451 100.515 234 88.9117 234 74.9768C233.992 60.5404 210.145 48.3905 170.07 42.2989ZM116.996 6.91175C129.602 6.92586 141.688 11.94 150.603 20.854C159.517 29.7681 164.531 41.8541 164.545 54.4605C164.546 57.4771 164.264 60.4872 163.702 63.451C148.421 67.2152 132.733 69.0704 116.996 68.974C101.259 69.0684 85.5706 67.2113 70.2904 63.445C69.7284 60.4812 69.4461 57.4712 69.4473 54.4546C69.463 41.8492 74.4778 29.7647 83.3917 20.8519C92.3056 11.9392 104.391 6.92586 116.996 6.91175ZM74.911 109.108C88.8838 110.684 102.935 111.465 116.996 111.448C131.057 111.465 145.108 110.684 159.081 109.108C146.05 115.73 131.612 119.107 116.996 118.952C102.38 119.107 87.942 115.73 74.911 109.108ZM172.799 100.212C154.346 103.165 135.683 104.612 116.996 104.537C98.3066 104.613 79.6421 103.166 61.1875 100.212C23.6934 93.9983 6.91116 83.0589 6.91116 74.9768C6.91116 66.8512 24.4398 55.6255 62.7731 49.4707C62.623 51.1155 62.5361 52.7782 62.5361 54.4605C62.5349 58.6959 63.0226 62.9173 63.9894 67.0408C64.1326 67.6461 64.4363 68.2016 64.8686 68.6488C65.3009 69.0961 65.8458 69.4185 66.4459 69.5821C82.9487 73.8801 99.9431 75.9991 116.996 75.8851C134.049 75.9991 151.043 73.8801 167.546 69.5821C168.147 69.4183 168.692 69.0956 169.124 68.648C169.556 68.2004 169.86 67.6445 170.003 67.0388C170.97 62.9153 171.457 58.6939 171.456 54.4585C171.456 52.7762 171.369 51.1135 171.219 49.4687C209.552 55.6137 227.081 66.8453 227.081 74.9748C227.081 83.0589 210.299 93.9983 172.799 100.212Z" fill="black"/>
<path d="M197.35 82.2259C182.784 86.7465 167.774 89.6872 152.579 90.9972C151.667 91.0888 150.829 91.539 150.249 92.2487C149.669 92.9584 149.394 93.8695 149.486 94.7815C149.578 95.6936 150.028 96.5318 150.738 97.1119C151.447 97.692 152.358 97.9664 153.27 97.8748C168.965 96.5129 184.467 93.4676 199.51 88.7915C200.364 88.4916 201.066 87.8689 201.466 87.057C201.866 86.2451 201.932 85.3087 201.649 84.449C201.366 83.5893 200.757 82.8747 199.954 82.4587C199.15 82.0427 198.215 81.9584 197.35 82.224V82.2259Z" fill="black"/>
<path d="M60.4373 124.83C59.5405 124.646 58.6072 124.824 57.8414 125.326C57.0755 125.828 56.5393 126.612 56.3499 127.508L35.0082 229.83C34.8213 230.728 34.9984 231.663 35.5005 232.429C36.0025 233.196 36.7886 233.732 37.6858 233.92C37.919 233.968 38.1565 233.993 38.3947 233.993C39.1881 233.992 39.9571 233.718 40.5725 233.217C41.188 232.716 41.6126 232.019 41.7752 231.242L63.1149 128.918C63.2077 128.473 63.212 128.015 63.1276 127.569C63.0433 127.124 62.8719 126.699 62.6232 126.319C62.3745 125.939 62.0535 125.613 61.6784 125.357C61.3033 125.102 60.8816 124.923 60.4373 124.83Z" fill="black"/>
<path d="M177.642 127.508C177.555 127.058 177.379 126.63 177.126 126.249C176.872 125.867 176.545 125.54 176.164 125.286C175.782 125.032 175.354 124.857 174.904 124.77C174.455 124.683 173.992 124.686 173.544 124.779C173.095 124.873 172.67 125.055 172.292 125.314C171.914 125.573 171.592 125.905 171.344 126.29C171.096 126.676 170.927 127.106 170.846 127.557C170.766 128.008 170.776 128.471 170.877 128.918L192.216 231.242C192.379 232.019 192.803 232.716 193.419 233.217C194.034 233.718 194.803 233.992 195.597 233.993C195.835 233.993 196.072 233.968 196.306 233.92C197.203 233.732 197.989 233.196 198.491 232.43C198.993 231.663 199.17 230.728 198.983 229.831L177.642 127.508Z" fill="black"/>
<path d="M141.783 130.661C141.33 130.691 140.887 130.809 140.48 131.009C140.073 131.21 139.709 131.489 139.41 131.83C139.11 132.171 138.881 132.567 138.735 132.997C138.589 133.427 138.529 133.881 138.558 134.334L144.812 230.76C144.868 231.636 145.256 232.457 145.896 233.057C146.536 233.658 147.38 233.992 148.257 233.993H148.484C148.937 233.963 149.38 233.845 149.787 233.645C150.194 233.444 150.558 233.165 150.858 232.824C151.157 232.483 151.386 232.087 151.532 231.657C151.678 231.227 151.739 230.773 151.709 230.32L145.455 133.886C145.428 133.432 145.311 132.989 145.111 132.581C144.911 132.173 144.632 131.808 144.291 131.508C143.949 131.209 143.552 130.979 143.121 130.834C142.691 130.689 142.236 130.63 141.783 130.661Z" fill="black"/>
<path d="M92.2091 130.661C91.7561 130.631 91.3016 130.691 90.8717 130.837C90.4418 130.983 90.0449 131.212 89.7037 131.512C89.3625 131.811 89.0838 132.175 88.8835 132.582C88.6832 132.99 88.5652 133.433 88.5363 133.886L82.2827 230.312C82.2532 230.765 82.3132 231.22 82.4593 231.649C82.6054 232.079 82.8348 232.476 83.1342 232.817C83.4336 233.158 83.7973 233.437 84.2045 233.637C84.6117 233.837 85.0543 233.956 85.5072 233.985H85.7343C86.6117 233.984 87.456 233.65 88.0959 233.05C88.7358 232.45 89.1234 231.628 89.18 230.753L95.4336 134.334C95.4631 133.881 95.4031 133.427 95.257 132.997C95.1109 132.568 94.8816 132.171 94.5821 131.83C94.2827 131.489 93.919 131.21 93.5118 131.01C93.1047 130.809 92.662 130.691 92.2091 130.661Z" fill="black"/>
</svg>
