<svg width="16" height="16" viewBox="0 0 16 16" fill="none" xmlns="http://www.w3.org/2000/svg">
<path fill-rule="evenodd" clip-rule="evenodd" d="M14.5 1H3.5L3.5 12H14.5V1ZM3.5 0C2.94772 0 2.5 0.447715 2.5 1V12C2.5 12.5523 2.94772 13 3.5 13H14.5C15.0523 13 15.5 12.5523 15.5 12V1C15.5 0.447715 15.0523 0 14.5 0H3.5Z" fill="white"/>
<path fill-rule="evenodd" clip-rule="evenodd" d="M0.5 3.5C0.776142 3.5 1 3.72386 1 4V14C1 14.2761 1.22386 14.5 1.5 14.5H11.5C11.7761 14.5 12 14.7239 12 15C12 15.2761 11.7761 15.5 11.5 15.5H1.5C0.671572 15.5 0 14.8284 0 14V4C0 3.72386 0.223858 3.5 0.5 3.5Z" fill="white"/>
<path fill-rule="evenodd" clip-rule="evenodd" d="M8.5 10L8.5 3L9.5 3L9.5 10L8.5 10Z" fill="white"/>
<path fill-rule="evenodd" clip-rule="evenodd" d="M5.5 6L12.5 6L12.5 7L5.5 7L5.5 6Z" fill="white"/>
</svg>
