<svg width="11" height="11" viewBox="0 0 11 11" fill="none" xmlns="http://www.w3.org/2000/svg">
<circle cx="5.5" cy="5.5" r="5.5" fill="white"/>
<path d="M7.92728 7.57611L5.85106 5.49996L7.92721 3.42378C8.02417 3.32685 8.02417 3.16963 7.92721 3.0727C7.83028 2.97577 7.67306 2.97577 7.57613 3.0727L5.49998 5.14888L3.4238 3.07273C3.32687 2.9758 3.16965 2.9758 3.07272 3.07273C2.97576 3.16966 2.97576 3.32688 3.07272 3.42381L5.14887 5.49996L3.07272 7.57611C2.97576 7.6731 2.97576 7.83026 3.07272 7.92722C3.12119 7.97568 3.18472 7.99993 3.24828 7.99993C3.31184 7.99993 3.37534 7.97568 3.42383 7.92722L5.49998 5.85104L7.57617 7.92722C7.62463 7.97568 7.68816 7.99993 7.75172 7.99993C7.81528 7.99993 7.87878 7.97568 7.92728 7.92722C8.02424 7.83026 8.02424 7.67307 7.92728 7.57611Z" fill="black"/>
</svg>
