<svg width="15" height="12" viewBox="0 0 15 12" fill="none" xmlns="http://www.w3.org/2000/svg">
<path d="M14.7692 1.42062C14.22 1.66154 13.6348 1.82123 13.0246 1.89877C13.6523 1.524 14.1314 0.935077 14.3566 0.225231C13.7714 0.574154 13.1252 0.820615 12.4366 0.958154C11.8809 0.366462 11.0889 0 10.2249 0C8.54862 0 7.19908 1.36062 7.19908 3.02862C7.19908 3.26862 7.21939 3.49938 7.26923 3.71908C4.752 3.59631 2.52462 2.38985 1.02831 0.552C0.767077 1.00523 0.613846 1.524 0.613846 2.08246C0.613846 3.13108 1.15385 4.06062 1.95877 4.59877C1.47231 4.58954 0.995077 4.44831 0.590769 4.22585C0.590769 4.23508 0.590769 4.24708 0.590769 4.25908C0.590769 5.73046 1.64031 6.95262 3.01662 7.23415C2.77015 7.30154 2.50154 7.33385 2.22277 7.33385C2.02892 7.33385 1.83323 7.32277 1.64954 7.28215C2.04185 8.48123 3.15508 9.36277 4.47877 9.39138C3.44862 10.1972 2.14062 10.6828 0.724615 10.6828C0.476308 10.6828 0.238154 10.6717 0 10.6412C1.34123 11.5062 2.93077 12 4.64492 12C10.2166 12 13.2628 7.38462 13.2628 3.384C13.2628 3.25015 13.2582 3.12092 13.2517 2.99262C13.8526 2.56615 14.3575 2.03354 14.7692 1.42062Z" fill="black"/>
</svg>
