<svg width="20" height="18" viewBox="0 0 20 18" fill="none" xmlns="http://www.w3.org/2000/svg">
<path d="M9.81008 3.03685L10.2301 3.6895L10.6507 3.0372C12.2281 0.59106 14.4271 0.109613 16.2061 0.797024C18.0179 1.4971 19.5 3.44904 19.5 6.09941C19.5 7.01981 19.0138 8.14215 18.1795 9.36867C17.3552 10.5804 16.2384 11.8263 15.0807 12.98C13.9251 14.1317 12.741 15.1797 11.7894 15.9969C11.4476 16.2905 11.1375 16.5528 10.8685 16.7803C10.7626 16.8699 10.6631 16.9541 10.5705 17.0327C10.4451 17.1391 10.3294 17.2378 10.2274 17.3264C10.1199 17.2357 9.99757 17.135 9.86546 17.0269C9.73167 16.9175 9.5851 16.7984 9.42638 16.6694C9.17782 16.4674 8.89947 16.2412 8.59377 15.99C7.59874 15.1722 6.3568 14.1237 5.14335 12.9716C3.9276 11.8173 2.75344 10.571 1.88664 9.35902C1.00821 8.13082 0.5 7.01208 0.5 6.09941C0.5 3.44662 2.08027 1.48716 4.01712 0.784366C5.92981 0.0903439 8.24328 0.602467 9.81008 3.03685Z" stroke="#C82A2A"/>
</svg>
