<svg width="29" height="29" viewBox="0 0 29 29" fill="none" xmlns="http://www.w3.org/2000/svg">
<path d="M27.3992 3.28035e-08H1.59939C0.715973 0.000531041 -0.000176969 0.717035 3.28035e-08 1.60081V27.4006C0.000531041 28.284 0.717035 29.0002 1.60081 29H15.4912V17.7852H11.7246V13.3955H15.4912V10.165C15.4912 6.4188 17.7783 4.37974 21.1201 4.37974C22.7207 4.37974 24.0962 4.49904 24.4971 4.55231V8.46777H22.1927C20.3745 8.46777 20.0225 9.33172 20.0225 10.5998V13.3955H24.3696L23.8032 17.7852H20.0225V29H27.3992C28.2831 29.0002 28.9998 28.2839 29 27.3999C29 27.3997 29 27.3995 29 27.3992V1.59939C28.9996 0.715973 28.283 -0.000176969 27.3992 3.28035e-08Z" fill="black"/>
</svg>
