<svg width="29" height="29" viewBox="0 0 29 29" fill="none" xmlns="http://www.w3.org/2000/svg">
<path d="M28.5219 8.60845C28.4549 7.08882 28.2091 6.04409 27.8571 5.13881C27.4939 4.17788 26.9352 3.31757 26.2032 2.60238C25.4881 1.87606 24.6221 1.31169 23.6723 0.954202C22.7618 0.602175 21.7225 0.356432 20.2028 0.289431C18.6719 0.216756 18.1858 0.199951 14.3028 0.199951C10.4198 0.199951 9.93381 0.216756 8.4085 0.283757C6.88887 0.350758 5.84414 0.596719 4.93908 0.948528C3.97793 1.31169 3.11762 1.87039 2.40243 2.60238C1.67611 3.31757 1.11195 4.18356 0.754251 5.13336C0.402224 6.04409 0.156481 7.08315 0.08948 8.60278C0.0168048 10.1338 0 10.6198 0 14.5028C0 18.3858 0.0168048 18.8718 0.0838057 20.3971C0.150807 21.9168 0.396768 22.9615 0.748795 23.8668C1.11195 24.8277 1.67611 25.688 2.40243 26.4032C3.11762 27.1295 3.98361 27.6939 4.9334 28.0514C5.84414 28.4034 6.8832 28.6491 8.40305 28.7161C9.92814 28.7834 10.4144 28.8 14.2974 28.8C18.1804 28.8 18.6664 28.7834 20.1917 28.7161C21.7113 28.6491 22.7561 28.4034 23.6611 28.0514C25.5832 27.3083 27.1028 25.7886 27.846 23.8668C28.1978 22.956 28.4437 21.9168 28.5107 20.3971C28.5777 18.8718 28.5945 18.3858 28.5945 14.5028C28.5945 10.6198 28.5889 10.1338 28.5219 8.60845ZM25.9464 20.2854C25.8848 21.6821 25.6502 22.4364 25.4547 22.9392C24.9741 24.1852 23.9852 25.174 22.7393 25.6546C22.2364 25.8502 21.4767 26.0848 20.0854 26.1461C18.5769 26.2133 18.1245 26.2299 14.3085 26.2299C10.4925 26.2299 10.0344 26.2133 8.53137 26.1461C7.13461 26.0848 6.38036 25.8502 5.87753 25.6546C5.2575 25.4255 4.69312 25.0623 4.23502 24.5874C3.76013 24.1236 3.39697 23.5649 3.16781 22.9449C2.97226 22.4421 2.73765 21.6821 2.67633 20.2911C2.60911 18.7826 2.59252 18.3299 2.59252 14.5139C2.59252 10.6979 2.60911 10.2398 2.67633 8.737C2.73765 7.34024 2.97226 6.58599 3.16781 6.08315C3.39697 5.4629 3.76013 4.89874 4.2407 4.44043C4.70425 3.96553 5.26295 3.60237 5.8832 3.37344C6.38604 3.17789 7.14596 2.94328 8.53705 2.88173C10.0456 2.81473 10.4982 2.79793 14.314 2.79793C18.1356 2.79793 18.5881 2.81473 20.0911 2.88173C21.4879 2.94328 22.2421 3.17789 22.745 3.37344C23.365 3.60237 23.9294 3.96553 24.3875 4.44043C24.8624 4.9042 25.2255 5.4629 25.4547 6.08315C25.6502 6.58599 25.8848 7.3457 25.9464 8.737C26.0134 10.2455 26.0302 10.6979 26.0302 14.5139C26.0302 18.3299 26.0134 18.7769 25.9464 20.2854Z" fill="black"/>
<path d="M14.302 7.15576C10.246 7.15576 6.95508 10.4464 6.95508 14.5027C6.95508 18.559 10.246 21.8497 14.302 21.8497C18.3583 21.8497 21.649 18.559 21.649 14.5027C21.649 10.4464 18.3583 7.15576 14.302 7.15576ZM14.302 19.2685C11.6707 19.2685 9.53625 17.1343 9.53625 14.5027C9.53625 11.8711 11.6707 9.73693 14.302 9.73693C16.9336 9.73693 19.0678 11.8711 19.0678 14.5027C19.0678 17.1343 16.9336 19.2685 14.302 19.2685Z" fill="black"/>
<path d="M23.6552 6.86557C23.6552 7.81275 22.8872 8.58075 21.9398 8.58075C20.9926 8.58075 20.2246 7.81275 20.2246 6.86557C20.2246 5.91817 20.9926 5.15039 21.9398 5.15039C22.8872 5.15039 23.6552 5.91817 23.6552 6.86557Z" fill="black"/>
</svg>
