<svg width="23" height="23" viewBox="0 0 23 23" fill="none" xmlns="http://www.w3.org/2000/svg">
<path d="M22.3121 20.7481L13.0635 11.4998L22.3118 2.25138C22.7437 1.8196 22.7437 1.11926 22.3118 0.687479C21.88 0.255704 21.1796 0.255704 20.7479 0.687479L11.4996 9.93593L2.25112 0.687627C1.81935 0.255852 1.119 0.255852 0.687223 0.687627C0.255301 1.1194 0.255301 1.81975 0.687223 2.25153L9.93552 11.4998L0.687223 20.7481C0.255301 21.1802 0.255301 21.8803 0.687223 22.3122C0.903111 22.5281 1.1861 22.6361 1.46925 22.6361C1.75239 22.6361 2.03524 22.5281 2.25127 22.3122L11.4996 13.0637L20.748 22.3122C20.9639 22.5281 21.2469 22.6361 21.53 22.6361C21.8132 22.6361 22.096 22.5281 22.3121 22.3122C22.744 21.8803 22.744 21.1801 22.3121 20.7481Z" fill="black"/>
</svg>
