<svg width="236" height="192" viewBox="0 0 236 192" fill="none" xmlns="http://www.w3.org/2000/svg">
<path d="M0 29H236V186.853C236 189.695 233.703 192 230.87 192H5.13043C2.29697 192 0 189.695 0 186.853V29Z" fill="white"/>
<path fill-rule="evenodd" clip-rule="evenodd" d="M234.29 30.7158H1.71014V186.853C1.71014 188.748 3.24146 190.284 5.13043 190.284H230.87C232.759 190.284 234.29 188.748 234.29 186.853V30.7158ZM0 29V186.853C0 189.695 2.29697 192 5.13043 192H230.87C233.703 192 236 189.695 236 186.853V29H0Z" fill="black"/>
<path d="M0 5.16667C0 2.3132 2.29697 0 5.13043 0H230.87C233.703 0 236 2.3132 236 5.16667V31H0V5.16667Z" fill="#F4F6FF"/>
<path fill-rule="evenodd" clip-rule="evenodd" d="M230.87 1.72222H5.13043C3.24146 1.72222 1.71014 3.26435 1.71014 5.16667V29.2778H234.29V5.16667C234.29 3.26435 232.759 1.72222 230.87 1.72222ZM5.13043 0C2.29697 0 0 2.3132 0 5.16667V31H236V5.16667C236 2.3132 233.703 0 230.87 0H5.13043Z" fill="black"/>
<path fill-rule="evenodd" clip-rule="evenodd" d="M70.5191 72.8695C67.3282 75.0218 64.8441 77.6067 63.5812 79.2559C62.7207 80.3796 61.1162 80.5898 59.9975 79.7254C58.8788 78.861 58.6695 77.2493 59.5301 76.1256C61.1067 74.0668 63.9893 71.0899 67.6699 68.6073C71.3388 66.1326 76.024 64 81.1481 64C86.2182 64 90.8756 65.9491 94.5481 68.2357C98.2267 70.526 101.116 73.2778 102.704 75.1917C103.607 76.2808 103.461 77.8995 102.377 78.8071C101.292 79.7147 99.6809 79.5675 98.7774 78.4784C97.5256 76.9696 95.0484 74.5874 91.8554 72.5994C88.6563 70.6076 84.9372 69.134 81.1481 69.134C77.4131 69.134 73.7218 70.7093 70.5191 72.8695ZM154.407 81.9691C145.918 81.9691 138.346 84.1705 135.764 85.2082C134.453 85.7347 132.966 85.0944 132.442 83.7781C131.917 82.4618 132.555 80.9679 133.865 80.4413C136.962 79.1972 145.177 76.8351 154.407 76.8351C163.44 76.8351 169.876 77.9936 172.146 78.6452C173.503 79.0346 174.289 80.4554 173.901 81.8186C173.513 83.1818 172.099 83.9711 170.742 83.5816C169.037 83.0923 163.093 81.9691 154.407 81.9691ZM118.332 137.52C109.119 137.058 100.065 138.554 94.6034 140.063C93.2426 140.439 91.836 139.635 91.4618 138.268C91.0875 136.901 91.8873 135.488 93.2482 135.113C99.1449 133.484 108.746 131.899 118.586 132.393C128.365 132.883 138.858 135.452 145.992 142.618C146.99 143.62 146.99 145.246 145.992 146.248C144.994 147.251 143.376 147.251 142.378 146.248C136.563 140.408 127.606 137.985 118.332 137.52Z" fill="#4487AC"/>
<path fill-rule="evenodd" clip-rule="evenodd" d="M234 31H0V29H234V31Z" fill="black"/>
<path fill-rule="evenodd" clip-rule="evenodd" d="M44 15.5C44 14.6716 44.7663 14 45.7115 14H220.288C221.234 14 222 14.6716 222 15.5C222 16.3284 221.234 17 220.288 17H45.7115C44.7663 17 44 16.3284 44 15.5Z" fill="#97B2C4"/>
<path d="M15 15.5C15 17.433 13.6569 19 12 19C10.3431 19 9 17.433 9 15.5C9 13.567 10.3431 12 12 12C13.6569 12 15 13.567 15 15.5Z" fill="#97B2C4"/>
<path d="M26 15.5C26 17.433 24.433 19 22.5 19C20.567 19 19 17.433 19 15.5C19 13.567 20.567 12 22.5 12C24.433 12 26 13.567 26 15.5Z" fill="#97B2C4"/>
<path d="M36 15.5C36 17.433 34.433 19 32.5 19C30.567 19 29 17.433 29 15.5C29 13.567 30.567 12 32.5 12C34.433 12 36 13.567 36 15.5Z" fill="#97B2C4"/>
<path d="M97 101C97 108.732 92.9706 115 88 115C83.0294 115 79 108.732 79 101C79 93.268 83.0294 87 88 87C92.9706 87 97 93.268 97 101Z" fill="#4487AC"/>
<path d="M154 103C154 110.732 149.747 117 144.5 117C139.253 117 135 110.732 135 103C135 95.268 139.253 89 144.5 89C149.747 89 154 95.268 154 103Z" fill="#4487AC"/>
<path d="M86 126C86 130.418 80.8513 134 74.5 134C68.1487 134 63 130.418 63 126C63 121.582 68.1487 118 74.5 118C80.8513 118 86 121.582 86 126Z" fill="#F4DEDE"/>
<path d="M173 126C173 130.418 167.851 134 161.5 134C155.149 134 150 130.418 150 126C150 121.582 155.149 118 161.5 118C167.851 118 173 121.582 173 126Z" fill="#F4DEDE"/>
</svg>
