<svg width="37" height="31" viewBox="0 0 37 31" fill="none" xmlns="http://www.w3.org/2000/svg">
<path d="M29.8163 31C29.6458 31 29.4772 30.9405 29.3419 30.8259L21.9946 24.5972H5.71686C2.93826 24.5971 0.677734 22.324 0.677734 19.53V5.06716C0.677734 2.2731 2.93826 0 5.71686 0H31.8886C34.6673 0 36.9278 2.27317 36.9278 5.06716V19.53C36.9278 22.324 34.6673 24.5971 31.8886 24.5971H30.5518V30.2602C30.5518 30.5481 30.3858 30.8097 30.1262 30.931C30.0272 30.9773 29.9214 31 29.8163 31ZM5.71686 1.47959C3.74959 1.47959 2.14912 3.08895 2.14912 5.06716V19.53C2.14912 21.5081 3.74959 23.1175 5.71686 23.1175H22.2633C22.4369 23.1175 22.6048 23.1792 22.7376 23.2917L29.0804 28.6689V23.8573C29.0804 23.4487 29.4098 23.1175 29.8161 23.1175H31.8886C33.8559 23.1175 35.4564 21.5081 35.4564 19.53V5.06716C35.4564 3.08895 33.8559 1.47959 31.8886 1.47959H5.71686Z" fill="black"/>
<path d="M30.6518 8.28477H6.95343C6.54713 8.28477 6.21777 7.95349 6.21777 7.54497C6.21777 7.13638 6.54713 6.80518 6.95343 6.80518H30.6517C31.058 6.80518 31.3874 7.13638 31.3874 7.54497C31.3874 7.95349 31.0581 8.28477 30.6518 8.28477Z" fill="black"/>
<path d="M30.6518 13.022H6.95343C6.54713 13.022 6.21777 12.6907 6.21777 12.2822C6.21777 11.8736 6.54713 11.5424 6.95343 11.5424H30.6517C31.058 11.5424 31.3874 11.8736 31.3874 12.2822C31.3874 12.6907 31.0581 13.022 30.6518 13.022Z" fill="black"/>
<path d="M30.6518 17.7593H6.95343C6.54713 17.7593 6.21777 17.428 6.21777 17.0195C6.21777 16.6109 6.54713 16.2797 6.95343 16.2797H30.6517C31.058 16.2797 31.3874 16.6108 31.3874 17.0195C31.3874 17.428 31.0581 17.7593 30.6518 17.7593Z" fill="black"/>
</svg>
