<svg width="82" height="58" viewBox="0 0 82 58" fill="none" xmlns="http://www.w3.org/2000/svg">
<path d="M56.1052 27.1144H47.4736V35.746H56.1052V27.1144Z" fill="#FFCE00"/>
<path d="M56.1052 40.0618H47.4736V48.6934H56.1052V40.0618Z" fill="#FFCE00"/>
<path d="M71.2107 40.0618H62.5791V48.6934H71.2107V40.0618Z" fill="#FFCE00"/>
<path d="M67.3976 28.8091V16.1096H40.8738V5.53552L34.5264 5.65105V57.3251H82.0001V28.8091H67.3976ZM75.6535 51.8121H40.8747V21.6225H61.051V34.322H75.6535V51.8121Z" fill="#FFCE00"/>
<path d="M34.5264 16.325V21.8091H20.3162V51.8409L17.6661 57.325L15.0035 51.7565L15.0042 21.8091H0V16.4973L15.4933 16.325H34.5264Z" fill="#FFCE00"/>
<path d="M43.4395 8.63159L36.9658 0V8.63159H43.4395Z" fill="#FFCE00"/>
<path d="M36.9659 0L30.4922 8.63159H36.9659V0Z" fill="#FFCE00"/>
</svg>
