<svg width="144" height="48" viewBox="0 0 144 48" fill="none" xmlns="http://www.w3.org/2000/svg">
<path d="M90.2427 23.8289H86.4012V33.8033H84.8334V23.8289H81V22.6148H90.2427V23.8289Z" fill="black"/>
<path d="M90.5547 29.5692C90.5547 28.7546 90.7243 28.022 91.0636 27.3714C91.4083 26.7208 91.8844 26.2188 92.4919 25.8653C93.1048 25.5118 93.8025 25.335 94.585 25.335C95.7944 25.335 96.7712 25.7269 97.5154 26.5108C98.2651 27.2946 98.64 28.3371 98.64 29.6383V29.7382C98.64 30.5476 98.4731 31.2751 98.1393 31.9206C97.8109 32.561 97.3376 33.0605 96.7192 33.4191C96.1063 33.7777 95.4004 33.957 94.6014 33.957C93.3975 33.957 92.4207 33.5651 91.671 32.7812C90.9268 31.9974 90.5547 30.96 90.5547 29.6691V29.5692ZM92.0814 29.7382C92.0814 30.6603 92.3085 31.4006 92.7627 31.959C93.2224 32.5174 93.8353 32.7966 94.6014 32.7966C95.373 32.7966 95.9859 32.5149 96.4401 31.9513C96.8943 31.3827 97.1214 30.5886 97.1214 29.5692C97.1214 28.6573 96.8889 27.9196 96.4237 27.356C95.964 26.7874 95.3511 26.5031 94.585 26.5031C93.8353 26.5031 93.2306 26.7823 92.7709 27.3407C92.3113 27.8991 92.0814 28.6983 92.0814 29.7382Z" fill="black"/>
<path d="M108.047 29.7382C108.047 31.0036 107.738 32.0231 107.119 32.7966C106.501 33.5702 105.664 33.957 104.608 33.957C103.53 33.957 102.681 33.6368 102.063 32.9964V37H100.544V25.4887H101.932L102.005 26.4109C102.624 25.6936 103.483 25.335 104.583 25.335C105.65 25.335 106.493 25.7116 107.111 26.4647C107.735 27.2177 108.047 28.2654 108.047 29.6076V29.7382ZM106.528 29.5768C106.528 28.6393 106.315 27.8991 105.888 27.356C105.461 26.813 104.876 26.5415 104.131 26.5415C103.212 26.5415 102.523 26.9232 102.063 27.6865V31.6593C102.517 32.4175 103.212 32.7966 104.148 32.7966C104.876 32.7966 105.453 32.5277 105.88 31.9898C106.312 31.4467 106.528 30.6424 106.528 29.5768Z" fill="black"/>
<path d="M117.503 29.7382C117.503 31.0087 117.191 32.0307 116.567 32.8043C115.943 33.5727 115.106 33.957 114.056 33.957C112.934 33.957 112.066 33.5856 111.453 32.8427L111.38 33.8033H109.984V22H111.503V26.4032C112.116 25.6911 112.961 25.335 114.039 25.335C115.117 25.335 115.963 25.7167 116.576 26.48C117.194 27.2433 117.503 28.2884 117.503 29.6153V29.7382ZM115.984 29.5768C115.984 28.6086 115.785 27.8607 115.385 27.333C114.986 26.8053 114.411 26.5415 113.661 26.5415C112.66 26.5415 111.94 26.9769 111.503 27.8478V31.4442C111.968 32.3151 112.693 32.7505 113.678 32.7505C114.406 32.7505 114.972 32.4867 115.377 31.959C115.782 31.4314 115.984 30.6373 115.984 29.5768Z" fill="black"/>
<path d="M124.907 32.981C124.316 33.6317 123.449 33.957 122.305 33.957C121.358 33.957 120.636 33.7008 120.138 33.1885C119.645 32.6711 119.396 31.9078 119.391 30.8986V25.4887H120.91V30.8601C120.91 32.1204 121.457 32.7505 122.551 32.7505C123.711 32.7505 124.483 32.3458 124.866 31.5364V25.4887H126.385V33.8033H124.94L124.907 32.981Z" fill="black"/>
<path d="M130.349 33.8033H128.831V25.4887H130.349V33.8033ZM128.708 23.2833C128.708 23.0528 128.781 22.8581 128.929 22.6993C129.082 22.5405 129.307 22.4611 129.602 22.4611C129.898 22.4611 130.122 22.5405 130.275 22.6993C130.429 22.8581 130.505 23.0528 130.505 23.2833C130.505 23.5138 130.429 23.7059 130.275 23.8596C130.122 24.0133 129.898 24.0902 129.602 24.0902C129.307 24.0902 129.082 24.0133 128.929 23.8596C128.781 23.7059 128.708 23.5138 128.708 23.2833Z" fill="black"/>
<path d="M134.437 33.8033H132.919V22H134.437V33.8033Z" fill="black"/>
<path d="M136.506 29.5768C136.506 28.3012 136.829 27.2766 137.474 26.5031C138.12 25.7244 138.965 25.335 140.011 25.335C141.05 25.335 141.874 25.668 142.481 26.334V22H144V33.8033H142.605L142.531 32.9119C141.923 33.6086 141.078 33.957 139.994 33.957C138.965 33.957 138.125 33.5625 137.474 32.7736C136.829 31.9846 136.506 30.9549 136.506 29.6844V29.5768ZM138.024 29.7382C138.024 30.6808 138.232 31.4185 138.648 31.9513C139.064 32.4841 139.639 32.7505 140.372 32.7505C141.335 32.7505 142.038 32.3458 142.481 31.5364V27.7172C142.027 26.9334 141.33 26.5415 140.388 26.5415C139.644 26.5415 139.064 26.8105 138.648 27.3484C138.232 27.8863 138.024 28.6829 138.024 29.7382Z" fill="black"/>
<path d="M47.9998 22.1539H40.6152V29.5385H47.9998V22.1539Z" fill="black"/>
<path d="M47.9998 33.2308H40.6152V40.6154H47.9998V33.2308Z" fill="black"/>
<path d="M60.9227 33.2308H53.5381V40.6154H60.9227V33.2308Z" fill="black"/>
<path d="M57.6605 23.6036V12.7388H34.9685V3.69232L29.5381 3.79116V48H70.1535V23.6036H57.6605ZM64.7237 43.2835H34.9693V17.4553H52.2308V28.3201H64.7237V43.2835Z" fill="black"/>
<path d="M29.5385 12.9231V17.615H17.3812V43.3082L15.114 48L12.836 43.236L12.8366 17.615H0V13.0706L13.2551 12.9231H29.5385Z" fill="black"/>
<path d="M38.7689 7.38462L33.2305 0V7.38462H38.7689Z" fill="black"/>
<path d="M33.2308 0L27.6924 7.38462H33.2308V0Z" fill="black"/>
</svg>
